<svg width="180" height="180" viewBox="0 0 40 40" fill="none" xmlns="http://www.w3.org/2000/svg">
  <rect width="40" height="40" rx="10" fill="#7d3644"/>
  <path d="M8 12 C8 10.9 8.9 10 10 10 L19 10 L19 30 L10 30 C8.9 30 8 29.1 8 28 Z" fill="#fafafa" opacity="0.9"/>
  <path d="M21 10 L30 10 C31.1 10 32 10.9 32 12 L32 28 C32 29.1 31.1 30 30 30 L21 30 Z" fill="#fafafa" opacity="0.7"/>
  <line x1="20" y1="10" x2="20" y2="30" stroke="#fafafa" stroke-width="2" opacity="0.5"/>
  <line x1="11" y1="15" x2="17" y2="15" stroke="#7d3644" stroke-width="1.5" opacity="0.6"/>
  <line x1="11" y1="19" x2="17" y2="19" stroke="#7d3644" stroke-width="1.5" opacity="0.6"/>
  <line x1="11" y1="23" x2="15" y2="23" stroke="#7d3644" stroke-width="1.5" opacity="0.6"/>
  <circle cx="24" cy="15" r="1.5" fill="#7d3644" opacity="0.6"/>
  <circle cx="28" cy="15" r="1.5" fill="#7d3644" opacity="0.6"/>
  <circle cx="24" cy="20" r="1.5" fill="#7d3644" opacity="0.6"/>
  <circle cx="28" cy="20" r="1.5" fill="#7d3644" opacity="0.6"/>
  <circle cx="24" cy="25" r="1.5" fill="#7d3644" opacity="0.6"/>
</svg>
